<svg width="23" height="18" viewBox="0 0 23 18" fill="none" xmlns="http://www.w3.org/2000/svg">
<g clip-path="url(#clip0_45_5365)">
<path d="M1.39433 0.179006C1.02058 -0.109275 0.477927 -0.0424782 0.183239 0.323147C-0.111448 0.688772 -0.0431671 1.21963 0.330583 1.50791L21.6056 17.8204C21.9793 18.1087 22.522 18.0419 22.8167 17.6763C23.1114 17.3106 23.0431 16.7798 22.6693 16.4915L18.8887 13.5946C20.3118 12.1673 21.275 10.5677 21.7601 9.43213C21.8787 9.1544 21.8787 8.84502 21.7601 8.56729C21.2246 7.31221 20.0998 5.48408 18.4179 3.9583C16.7289 2.41846 14.4037 1.12471 11.5 1.12471C9.04902 1.12471 7.00777 2.04932 5.41574 3.26221L1.39433 0.179006ZM6.8209 4.33799C8.12183 3.43447 9.68511 2.81221 11.5 2.81221C13.8431 2.81221 15.7693 3.85283 17.2464 5.19229C18.63 6.45088 19.5859 7.94502 20.0746 8.99971C19.6218 9.98408 18.7593 11.3481 17.5267 12.547L15.5932 11.0634C15.9203 10.4446 16.1036 9.74502 16.1036 8.99971C16.1036 6.51416 14.0443 4.49971 11.5036 4.49971C10.3464 4.49971 9.28621 4.91807 8.47761 5.60713L6.8209 4.33799ZM14.1917 9.99112L11.2628 7.74463C11.4137 7.4458 11.5 7.10479 11.5 6.74971C11.5 6.55635 11.4748 6.36651 11.4281 6.18721C11.4532 6.18721 11.4748 6.18721 11.5 6.18721C13.0884 6.18721 14.375 7.4458 14.375 8.99971C14.375 9.34776 14.3103 9.68174 14.1917 9.99112ZM14.5295 14.572C13.6131 14.9552 12.6032 15.1872 11.5 15.1872C9.15683 15.1872 7.23058 14.1466 5.75355 12.8071C4.36996 11.5485 3.41402 10.0544 2.92527 8.99971C3.22355 8.35283 3.69793 7.54072 4.34121 6.72158L2.98636 5.67744C2.16699 6.72158 1.58121 7.76221 1.2398 8.56729C1.12121 8.84502 1.12121 9.1544 1.2398 9.43213C1.77527 10.6872 2.90011 12.5153 4.58199 14.0411C6.27105 15.581 8.59621 16.8747 11.5 16.8747C13.2178 16.8747 14.7307 16.4212 16.0353 15.7321L14.5295 14.572ZM6.89996 8.99971C6.89996 11.4853 8.95918 13.4997 11.5 13.4997C11.9779 13.4997 12.4379 13.4294 12.8728 13.2958L10.8531 11.7419C10.0086 11.5521 9.30418 10.9966 8.92324 10.2548L6.90715 8.70088C6.89996 8.79932 6.89636 8.89776 6.89636 8.99971H6.89996Z" fill="black"/>
</g>
<defs>
<clipPath id="clip0_45_5365">
<rect width="23" height="18" fill="white"/>
</clipPath>
</defs>
</svg>
